<svg xmlns="http://www.w3.org/2000/svg" xmlns:xlink="http://www.w3.org/1999/xlink" width="1024" zoomAndPan="magnify" viewBox="0 0 768 767.999994" height="1024" preserveAspectRatio="xMidYMid meet" version="1.0"><defs><clipPath id="id1"><path d="M 48 71 L 712 71 L 712 698 L 48 698 Z M 48 71 " clip-rule="nonzero"/></clipPath><clipPath id="id2"><path d="M 573.328125 472.039062 L 509.152344 472.039062 L 509.152344 523.242188 L 579.984375 523.242188 C 586.582031 523.242188 591.769531 528.429688 591.769531 535.03125 L 591.769531 583.003906 C 611.214844 588.191406 625.59375 605.871094 625.59375 626.972656 C 625.59375 652.078125 605.203125 672.589844 580.101562 672.589844 C 555 672.589844 534.492188 652.078125 534.492188 626.972656 C 534.492188 605.988281 548.871094 588.308594 568.199219 583.121094 L 568.199219 546.816406 L 497.367188 546.816406 C 490.882812 546.816406 485.582031 541.511719 485.582031 535.03125 L 485.582031 472.039062 L 423.136719 472.039062 L 423.136719 558.636719 C 423.136719 565.148438 417.859375 570.425781 411.351562 570.425781 L 375.84375 570.425781 L 375.84375 608.460938 C 375.847656 608.464844 375.851562 608.464844 375.855469 608.464844 C 395.300781 613.535156 409.5625 631.449219 409.5625 652.433594 C 409.5625 677.539062 389.175781 697.929688 364.070312 697.929688 C 338.851562 697.929688 318.460938 677.539062 318.460938 652.433594 C 318.460938 631.453125 332.714844 613.539062 352.273438 608.46875 L 352.273438 558.636719 C 352.273438 552.128906 357.550781 546.851562 364.058594 546.851562 L 399.566406 546.851562 L 399.566406 472.039062 L 312.921875 472.039062 L 312.921875 502.96875 C 312.921875 509.449219 307.617188 514.753906 301.136719 514.753906 L 221.347656 514.753906 L 221.347656 536.679688 C 240.792969 541.867188 255.054688 559.664062 255.054688 580.644531 C 255.054688 605.753906 234.664062 626.144531 209.441406 626.144531 C 184.339844 626.144531 163.949219 605.753906 163.949219 580.644531 C 163.949219 559.546875 178.328125 541.746094 197.777344 536.5625 L 197.777344 502.96875 C 197.777344 496.367188 203.078125 491.179688 209.5625 491.179688 L 289.351562 491.179688 L 289.351562 472.039062 L 160.359375 472.039062 C 12.210938 466.03125 10.328125 254.917969 158.238281 246.3125 C 158.117188 277.429688 165.898438 309.375 180.511719 337.3125 C 182.515625 341.199219 186.523438 343.320312 190.648438 343.320312 C 192.648438 343.320312 194.652344 342.851562 196.539062 341.789062 C 201.960938 338.609375 204.082031 331.769531 201.253906 326.230469 C 193.828125 312.203125 188.289062 297.117188 184.988281 281.554688 C 178.035156 247.960938 181.925781 212.601562 195.007812 180.890625 C 207.851562 149.539062 229.65625 121.71875 257.472656 102.152344 C 286.582031 81.523438 321.230469 71.152344 356.824219 71.152344 C 438.027344 71.152344 507.089844 125.726562 526.539062 202.816406 C 541.503906 197.511719 557.179688 194.800781 573.328125 194.800781 C 757.300781 202.34375 757.066406 464.496094 573.328125 472.039062 Z M 573.328125 472.039062 " clip-rule="nonzero"/></clipPath><linearGradient x1="0.8" gradientTransform="matrix(11.838352, 0, 0, 11.840114, 0.917966, 5.65779)" y1="32" x2="63.892577" gradientUnits="userSpaceOnUse" y2="32" id="id3"><stop stop-opacity="1" stop-color="rgb(100%, 95.298767%, 23.098755%)" offset="0"/><stop stop-opacity="1" stop-color="rgb(100%, 95.298767%, 23.098755%)" offset="0.03125"/><stop stop-opacity="1" stop-color="rgb(100%, 95.298767%, 23.098755%)" offset="0.046875"/><stop stop-opacity="1" stop-color="rgb(99.977112%, 95.036316%, 22.813416%)" offset="0.0507812"/><stop stop-opacity="1" stop-color="rgb(99.954224%, 94.773865%, 22.529602%)" offset="0.0546875"/><stop stop-opacity="1" stop-color="rgb(99.909973%, 94.256592%, 21.968079%)" offset="0.0585937"/><stop stop-opacity="1" stop-color="rgb(99.867249%, 93.739319%, 21.406555%)" offset="0.0625"/><stop stop-opacity="1" stop-color="rgb(99.822998%, 93.222046%, 20.845032%)" offset="0.0664062"/><stop stop-opacity="1" stop-color="rgb(99.778748%, 92.704773%, 20.285034%)" offset="0.0703125"/><stop stop-opacity="1" stop-color="rgb(99.734497%, 92.1875%, 19.723511%)" offset="0.0742188"/><stop stop-opacity="1" stop-color="rgb(99.690247%, 91.671753%, 19.161987%)" offset="0.078125"/><stop stop-opacity="1" stop-color="rgb(99.645996%, 91.15448%, 18.600464%)" offset="0.0820312"/><stop stop-opacity="1" stop-color="rgb(99.601746%, 90.637207%, 18.040466%)" offset="0.0859375"/><stop stop-opacity="1" stop-color="rgb(99.60022%, 90.226746%, 17.611694%)" offset="0.0898437"/><stop stop-opacity="1" stop-color="rgb(99.598694%, 89.81781%, 17.184448%)" offset="0.09375"/><stop stop-opacity="1" stop-color="rgb(99.598694%, 89.411926%, 16.760254%)" offset="0.0976562"/><stop stop-opacity="1" stop-color="rgb(99.598694%, 89.006042%, 16.337585%)" offset="0.101562"/><stop stop-opacity="1" stop-color="rgb(99.598694%, 88.600159%, 15.914917%)" offset="0.105469"/><stop stop-opacity="1" stop-color="rgb(99.598694%, 88.194275%, 15.492249%)" offset="0.109375"/><stop stop-opacity="1" stop-color="rgb(99.598694%, 87.788391%, 15.06958%)" offset="0.113281"/><stop stop-opacity="1" stop-color="rgb(99.598694%, 87.382507%, 14.646912%)" offset="0.117187"/><stop stop-opacity="1" stop-color="rgb(99.598694%, 86.976624%, 14.222717%)" offset="0.121094"/><stop stop-opacity="1" stop-color="rgb(99.598694%, 86.57074%, 13.800049%)" offset="0.125"/><stop stop-opacity="1" stop-color="rgb(99.598694%, 86.164856%, 13.37738%)" offset="0.128906"/><stop stop-opacity="1" stop-color="rgb(99.598694%, 85.758972%, 12.954712%)" offset="0.132812"/><stop stop-opacity="1" stop-color="rgb(99.598694%, 85.353088%, 12.532043%)" offset="0.136719"/><stop stop-opacity="1" stop-color="rgb(99.598694%, 84.947205%, 12.109375%)" offset="0.140625"/><stop stop-opacity="1" stop-color="rgb(99.598694%, 84.541321%, 11.685181%)" offset="0.144531"/><stop stop-opacity="1" stop-color="rgb(99.598694%, 84.135437%, 11.262512%)" offset="0.148437"/><stop stop-opacity="1" stop-color="rgb(99.594116%, 83.764648%, 10.879517%)" offset="0.152344"/><stop stop-opacity="1" stop-color="rgb(99.589539%, 83.395386%, 10.496521%)" offset="0.15625"/><stop stop-opacity="1" stop-color="rgb(99.56665%, 83.155823%, 10.256958%)" offset="0.160156"/><stop stop-opacity="1" stop-color="rgb(99.545288%, 82.91626%, 10.017395%)" offset="0.164062"/><stop stop-opacity="1" stop-color="rgb(99.5224%, 82.676697%, 9.777832%)" offset="0.167969"/><stop stop-opacity="1" stop-color="rgb(99.501038%, 82.437134%, 9.538269%)" offset="0.171875"/><stop stop-opacity="1" stop-color="rgb(99.478149%, 82.197571%, 9.298706%)" offset="0.175781"/><stop stop-opacity="1" stop-color="rgb(99.455261%, 81.958008%, 9.059143%)" offset="0.179688"/><stop stop-opacity="1" stop-color="rgb(99.432373%, 81.718445%, 8.81958%)" offset="0.183594"/><stop stop-opacity="1" stop-color="rgb(99.411011%, 81.478882%, 8.580017%)" offset="0.1875"/><stop stop-opacity="1" stop-color="rgb(99.388123%, 81.239319%, 8.340454%)" offset="0.191406"/><stop stop-opacity="1" stop-color="rgb(99.36676%, 81.001282%, 8.100891%)" offset="0.195312"/><stop stop-opacity="1" stop-color="rgb(99.343872%, 80.761719%, 7.861328%)" offset="0.199219"/><stop stop-opacity="1" stop-color="rgb(99.32251%, 80.522156%, 7.621765%)" offset="0.203125"/><stop stop-opacity="1" stop-color="rgb(99.299622%, 80.282593%, 7.382202%)" offset="0.207031"/><stop stop-opacity="1" stop-color="rgb(99.278259%, 80.04303%, 7.142639%)" offset="0.210938"/><stop stop-opacity="1" stop-color="rgb(99.255371%, 79.803467%, 6.903076%)" offset="0.214844"/><stop stop-opacity="1" stop-color="rgb(99.232483%, 79.563904%, 6.663513%)" offset="0.21875"/><stop stop-opacity="1" stop-color="rgb(99.215698%, 79.36554%, 6.460571%)" offset="0.222656"/><stop stop-opacity="1" stop-color="rgb(99.198914%, 79.168701%, 6.259155%)" offset="0.226562"/><stop stop-opacity="1" stop-color="rgb(99.198914%, 79.10614%, 6.176758%)" offset="0.234375"/><stop stop-opacity="1" stop-color="rgb(99.198914%, 78.919983%, 5.92804%)" offset="0.25"/><stop stop-opacity="1" stop-color="rgb(99.198914%, 78.671265%, 5.595398%)" offset="0.265625"/><stop stop-opacity="1" stop-color="rgb(99.198914%, 78.422546%, 5.264282%)" offset="0.28125"/><stop stop-opacity="1" stop-color="rgb(99.198914%, 78.175354%, 4.933167%)" offset="0.296875"/><stop stop-opacity="1" stop-color="rgb(99.172974%, 77.882385%, 4.866028%)" offset="0.304687"/><stop stop-opacity="1" stop-color="rgb(99.102783%, 77.470398%, 5.189514%)" offset="0.308594"/><stop stop-opacity="1" stop-color="rgb(99.058533%, 77.226257%, 5.41687%)" offset="0.3125"/><stop stop-opacity="1" stop-color="rgb(99.014282%, 76.982117%, 5.644226%)" offset="0.316406"/><stop stop-opacity="1" stop-color="rgb(98.970032%, 76.739502%, 5.871582%)" offset="0.320312"/><stop stop-opacity="1" stop-color="rgb(98.925781%, 76.495361%, 6.097412%)" offset="0.324219"/><stop stop-opacity="1" stop-color="rgb(98.881531%, 76.251221%, 6.324768%)" offset="0.328125"/><stop stop-opacity="1" stop-color="rgb(98.83728%, 76.00708%, 6.552124%)" offset="0.332031"/><stop stop-opacity="1" stop-color="rgb(98.79303%, 75.764465%, 6.77948%)" offset="0.335937"/><stop stop-opacity="1" stop-color="rgb(98.748779%, 75.520325%, 7.00531%)" offset="0.339844"/><stop stop-opacity="1" stop-color="rgb(98.704529%, 75.276184%, 7.232666%)" offset="0.34375"/><stop stop-opacity="1" stop-color="rgb(98.660278%, 75.032043%, 7.458496%)" offset="0.347656"/><stop stop-opacity="1" stop-color="rgb(98.616028%, 74.787903%, 7.685852%)" offset="0.351562"/><stop stop-opacity="1" stop-color="rgb(98.571777%, 74.543762%, 7.913208%)" offset="0.355469"/><stop stop-opacity="1" stop-color="rgb(98.529053%, 74.301147%, 8.140564%)" offset="0.359375"/><stop stop-opacity="1" stop-color="rgb(98.484802%, 74.057007%, 8.366394%)" offset="0.363281"/><stop stop-opacity="1" stop-color="rgb(98.440552%, 73.812866%, 8.59375%)" offset="0.367187"/><stop stop-opacity="1" stop-color="rgb(98.396301%, 73.568726%, 8.81958%)" offset="0.371094"/><stop stop-opacity="1" stop-color="rgb(98.352051%, 73.324585%, 9.046936%)" offset="0.375"/><stop stop-opacity="1" stop-color="rgb(98.3078%, 73.080444%, 9.274292%)" offset="0.378906"/><stop stop-opacity="1" stop-color="rgb(98.26355%, 72.83783%, 9.501648%)" offset="0.382812"/><stop stop-opacity="1" stop-color="rgb(98.219299%, 72.593689%, 9.727478%)" offset="0.386719"/><stop stop-opacity="1" stop-color="rgb(98.175049%, 72.349548%, 9.954834%)" offset="0.390625"/><stop stop-opacity="1" stop-color="rgb(98.130798%, 72.105408%, 10.180664%)" offset="0.394531"/><stop stop-opacity="1" stop-color="rgb(98.086548%, 71.861267%, 10.40802%)" offset="0.398437"/><stop stop-opacity="1" stop-color="rgb(98.042297%, 71.617126%, 10.635376%)" offset="0.402344"/><stop stop-opacity="1" stop-color="rgb(97.998047%, 71.374512%, 10.862732%)" offset="0.40625"/><stop stop-opacity="1" stop-color="rgb(97.953796%, 71.130371%, 11.088562%)" offset="0.410156"/><stop stop-opacity="1" stop-color="rgb(97.909546%, 70.88623%, 11.315918%)" offset="0.414062"/><stop stop-opacity="1" stop-color="rgb(97.865295%, 70.64209%, 11.541748%)" offset="0.417969"/><stop stop-opacity="1" stop-color="rgb(97.821045%, 70.397949%, 11.769104%)" offset="0.421875"/><stop stop-opacity="1" stop-color="rgb(97.776794%, 70.153809%, 11.99646%)" offset="0.425781"/><stop stop-opacity="1" stop-color="rgb(97.732544%, 69.911194%, 12.223816%)" offset="0.429687"/><stop stop-opacity="1" stop-color="rgb(97.688293%, 69.667053%, 12.449646%)" offset="0.433594"/><stop stop-opacity="1" stop-color="rgb(97.644043%, 69.422913%, 12.677002%)" offset="0.4375"/><stop stop-opacity="1" stop-color="rgb(97.599792%, 69.178772%, 12.902832%)" offset="0.441406"/><stop stop-opacity="1" stop-color="rgb(97.555542%, 68.936157%, 13.130188%)" offset="0.445312"/><stop stop-opacity="1" stop-color="rgb(97.511292%, 68.692017%, 13.357544%)" offset="0.449219"/><stop stop-opacity="1" stop-color="rgb(97.467041%, 68.447876%, 13.5849%)" offset="0.453125"/><stop stop-opacity="1" stop-color="rgb(97.422791%, 68.203735%, 13.81073%)" offset="0.457031"/><stop stop-opacity="1" stop-color="rgb(97.37854%, 67.959595%, 14.038086%)" offset="0.460937"/><stop stop-opacity="1" stop-color="rgb(97.33429%, 67.715454%, 14.263916%)" offset="0.464844"/><stop stop-opacity="1" stop-color="rgb(97.290039%, 67.472839%, 14.491272%)" offset="0.46875"/><stop stop-opacity="1" stop-color="rgb(97.245789%, 67.228699%, 14.718628%)" offset="0.472656"/><stop stop-opacity="1" stop-color="rgb(97.201538%, 66.984558%, 14.945984%)" offset="0.476562"/><stop stop-opacity="1" stop-color="rgb(97.157288%, 66.740417%, 15.171814%)" offset="0.480469"/><stop stop-opacity="1" stop-color="rgb(97.113037%, 66.496277%, 15.39917%)" offset="0.484375"/><stop stop-opacity="1" stop-color="rgb(97.068787%, 66.252136%, 15.625%)" offset="0.488281"/><stop stop-opacity="1" stop-color="rgb(97.024536%, 66.009521%, 15.852356%)" offset="0.492187"/><stop stop-opacity="1" stop-color="rgb(96.980286%, 65.765381%, 16.079712%)" offset="0.496094"/><stop stop-opacity="1" stop-color="rgb(96.936035%, 65.52124%, 16.307068%)" offset="0.5"/><stop stop-opacity="1" stop-color="rgb(96.891785%, 65.2771%, 16.532898%)" offset="0.503906"/><stop stop-opacity="1" stop-color="rgb(96.847534%, 65.032959%, 16.760254%)" offset="0.507812"/><stop stop-opacity="1" stop-color="rgb(96.803284%, 64.788818%, 16.986084%)" offset="0.511719"/><stop stop-opacity="1" stop-color="rgb(96.759033%, 64.546204%, 17.21344%)" offset="0.515625"/><stop stop-opacity="1" stop-color="rgb(96.714783%, 64.302063%, 17.440796%)" offset="0.519531"/><stop stop-opacity="1" stop-color="rgb(96.670532%, 64.057922%, 17.668152%)" offset="0.523437"/><stop stop-opacity="1" stop-color="rgb(96.626282%, 63.813782%, 17.893982%)" offset="0.527344"/><stop stop-opacity="1" stop-color="rgb(96.582031%, 63.569641%, 18.121338%)" offset="0.53125"/><stop stop-opacity="1" stop-color="rgb(96.537781%, 63.3255%, 18.347168%)" offset="0.535156"/><stop stop-opacity="1" stop-color="rgb(96.49353%, 63.082886%, 18.574524%)" offset="0.539062"/><stop stop-opacity="1" stop-color="rgb(96.44928%, 62.838745%, 18.80188%)" offset="0.542969"/><stop stop-opacity="1" stop-color="rgb(96.405029%, 62.594604%, 19.029236%)" offset="0.546875"/><stop stop-opacity="1" stop-color="rgb(96.360779%, 62.350464%, 19.255066%)" offset="0.550781"/><stop stop-opacity="1" stop-color="rgb(96.316528%, 62.107849%, 19.482422%)" offset="0.554687"/><stop stop-opacity="1" stop-color="rgb(96.272278%, 61.863708%, 19.708252%)" offset="0.558594"/><stop stop-opacity="1" stop-color="rgb(96.228027%, 61.619568%, 19.935608%)" offset="0.5625"/><stop stop-opacity="1" stop-color="rgb(96.183777%, 61.375427%, 20.162964%)" offset="0.566406"/><stop stop-opacity="1" stop-color="rgb(96.139526%, 61.131287%, 20.39032%)" offset="0.570312"/><stop stop-opacity="1" stop-color="rgb(96.095276%, 60.887146%, 20.61615%)" offset="0.574219"/><stop stop-opacity="1" stop-color="rgb(96.051025%, 60.644531%, 20.843506%)" offset="0.578125"/><stop stop-opacity="1" stop-color="rgb(96.006775%, 60.400391%, 21.070862%)" offset="0.582031"/><stop stop-opacity="1" stop-color="rgb(95.962524%, 60.15625%, 21.298218%)" offset="0.585938"/><stop stop-opacity="1" stop-color="rgb(95.918274%, 59.912109%, 21.524048%)" offset="0.589844"/><stop stop-opacity="1" stop-color="rgb(95.874023%, 59.667969%, 21.751404%)" offset="0.59375"/><stop stop-opacity="1" stop-color="rgb(95.829773%, 59.423828%, 21.977234%)" offset="0.597656"/><stop stop-opacity="1" stop-color="rgb(95.785522%, 59.181213%, 22.20459%)" offset="0.601562"/><stop stop-opacity="1" stop-color="rgb(95.741272%, 58.937073%, 22.431946%)" offset="0.605469"/><stop stop-opacity="1" stop-color="rgb(95.697021%, 58.692932%, 22.659302%)" offset="0.609375"/><stop stop-opacity="1" stop-color="rgb(95.652771%, 58.448792%, 22.885132%)" offset="0.613281"/><stop stop-opacity="1" stop-color="rgb(95.608521%, 58.204651%, 23.112488%)" offset="0.617187"/><stop stop-opacity="1" stop-color="rgb(95.56427%, 57.96051%, 23.338318%)" offset="0.621094"/><stop stop-opacity="1" stop-color="rgb(95.52002%, 57.717896%, 23.565674%)" offset="0.625"/><stop stop-opacity="1" stop-color="rgb(95.475769%, 57.473755%, 23.79303%)" offset="0.628906"/><stop stop-opacity="1" stop-color="rgb(95.431519%, 57.229614%, 24.020386%)" offset="0.632812"/><stop stop-opacity="1" stop-color="rgb(95.387268%, 56.985474%, 24.246216%)" offset="0.636719"/><stop stop-opacity="1" stop-color="rgb(95.343018%, 56.741333%, 24.473572%)" offset="0.640625"/><stop stop-opacity="1" stop-color="rgb(95.297241%, 56.462097%, 24.57428%)" offset="0.644531"/><stop stop-opacity="1" stop-color="rgb(95.251465%, 56.182861%, 24.674988%)" offset="0.648437"/><stop stop-opacity="1" stop-color="rgb(95.202637%, 55.867004%, 24.650574%)" offset="0.652344"/><stop stop-opacity="1" stop-color="rgb(95.153809%, 55.551147%, 24.62616%)" offset="0.65625"/><stop stop-opacity="1" stop-color="rgb(95.10498%, 55.235291%, 24.601746%)" offset="0.660156"/><stop stop-opacity="1" stop-color="rgb(95.057678%, 54.920959%, 24.578857%)" offset="0.664062"/><stop stop-opacity="1" stop-color="rgb(95.00885%, 54.605103%, 24.554443%)" offset="0.667969"/><stop stop-opacity="1" stop-color="rgb(94.961548%, 54.289246%, 24.530029%)" offset="0.671875"/><stop stop-opacity="1" stop-color="rgb(94.91272%, 53.973389%, 24.505615%)" offset="0.675781"/><stop stop-opacity="1" stop-color="rgb(94.865417%, 53.657532%, 24.482727%)" offset="0.679687"/><stop stop-opacity="1" stop-color="rgb(94.816589%, 53.341675%, 24.458313%)" offset="0.683594"/><stop stop-opacity="1" stop-color="rgb(94.767761%, 53.027344%, 24.433899%)" offset="0.6875"/><stop stop-opacity="1" stop-color="rgb(94.718933%, 52.711487%, 24.409485%)" offset="0.691406"/><stop stop-opacity="1" stop-color="rgb(94.671631%, 52.39563%, 24.385071%)" offset="0.695312"/><stop stop-opacity="1" stop-color="rgb(94.622803%, 52.079773%, 24.360657%)" offset="0.699219"/><stop stop-opacity="1" stop-color="rgb(94.5755%, 51.765442%, 24.337769%)" offset="0.703125"/><stop stop-opacity="1" stop-color="rgb(94.526672%, 51.449585%, 24.313354%)" offset="0.707031"/><stop stop-opacity="1" stop-color="rgb(94.47937%, 51.133728%, 24.28894%)" offset="0.710938"/><stop stop-opacity="1" stop-color="rgb(94.430542%, 50.817871%, 24.264526%)" offset="0.714844"/><stop stop-opacity="1" stop-color="rgb(94.38324%, 50.50354%, 24.241638%)" offset="0.71875"/><stop stop-opacity="1" stop-color="rgb(94.334412%, 50.187683%, 24.217224%)" offset="0.722656"/><stop stop-opacity="1" stop-color="rgb(94.285583%, 49.871826%, 24.19281%)" offset="0.726562"/><stop stop-opacity="1" stop-color="rgb(94.236755%, 49.555969%, 24.168396%)" offset="0.730469"/><stop stop-opacity="1" stop-color="rgb(94.189453%, 49.241638%, 24.143982%)" offset="0.734375"/><stop stop-opacity="1" stop-color="rgb(94.140625%, 48.925781%, 24.119568%)" offset="0.738281"/><stop stop-opacity="1" stop-color="rgb(94.093323%, 48.609924%, 24.09668%)" offset="0.742187"/><stop stop-opacity="1" stop-color="rgb(94.044495%, 48.294067%, 24.072266%)" offset="0.746094"/><stop stop-opacity="1" stop-color="rgb(93.997192%, 47.979736%, 24.047852%)" offset="0.75"/><stop stop-opacity="1" stop-color="rgb(93.948364%, 47.663879%, 24.023438%)" offset="0.753906"/><stop stop-opacity="1" stop-color="rgb(93.901062%, 47.348022%, 24.000549%)" offset="0.757812"/><stop stop-opacity="1" stop-color="rgb(93.852234%, 47.032166%, 23.976135%)" offset="0.761719"/><stop stop-opacity="1" stop-color="rgb(93.803406%, 46.717834%, 23.951721%)" offset="0.765625"/><stop stop-opacity="1" stop-color="rgb(93.754578%, 46.401978%, 23.927307%)" offset="0.769531"/><stop stop-opacity="1" stop-color="rgb(93.707275%, 46.086121%, 23.902893%)" offset="0.773437"/><stop stop-opacity="1" stop-color="rgb(93.658447%, 45.770264%, 23.878479%)" offset="0.777344"/><stop stop-opacity="1" stop-color="rgb(93.611145%, 45.454407%, 23.855591%)" offset="0.78125"/><stop stop-opacity="1" stop-color="rgb(93.562317%, 45.13855%, 23.831177%)" offset="0.785156"/><stop stop-opacity="1" stop-color="rgb(93.515015%, 44.824219%, 23.806763%)" offset="0.789062"/><stop stop-opacity="1" stop-color="rgb(93.466187%, 44.508362%, 23.782349%)" offset="0.792969"/><stop stop-opacity="1" stop-color="rgb(93.417358%, 44.192505%, 23.757935%)" offset="0.796875"/><stop stop-opacity="1" stop-color="rgb(93.36853%, 43.876648%, 23.733521%)" offset="0.800781"/><stop stop-opacity="1" stop-color="rgb(93.321228%, 43.562317%, 23.710632%)" offset="0.804687"/><stop stop-opacity="1" stop-color="rgb(93.2724%, 43.24646%, 23.686218%)" offset="0.808594"/><stop stop-opacity="1" stop-color="rgb(93.225098%, 42.930603%, 23.661804%)" offset="0.8125"/><stop stop-opacity="1" stop-color="rgb(93.17627%, 42.614746%, 23.63739%)" offset="0.816406"/><stop stop-opacity="1" stop-color="rgb(93.128967%, 42.300415%, 23.614502%)" offset="0.820312"/><stop stop-opacity="1" stop-color="rgb(93.080139%, 41.984558%, 23.590088%)" offset="0.824219"/><stop stop-opacity="1" stop-color="rgb(93.032837%, 41.668701%, 23.565674%)" offset="0.828125"/><stop stop-opacity="1" stop-color="rgb(92.984009%, 41.352844%, 23.54126%)" offset="0.832031"/><stop stop-opacity="1" stop-color="rgb(92.935181%, 41.038513%, 23.516846%)" offset="0.835938"/><stop stop-opacity="1" stop-color="rgb(92.880249%, 40.515137%, 23.487854%)" offset="0.839844"/><stop stop-opacity="1" stop-color="rgb(92.825317%, 39.993286%, 23.460388%)" offset="0.84375"/><stop stop-opacity="1" stop-color="rgb(92.765808%, 39.344788%, 23.428345%)" offset="0.847656"/><stop stop-opacity="1" stop-color="rgb(92.707825%, 38.696289%, 23.397827%)" offset="0.851562"/><stop stop-opacity="1" stop-color="rgb(92.648315%, 38.047791%, 23.365784%)" offset="0.855469"/><stop stop-opacity="1" stop-color="rgb(92.590332%, 37.399292%, 23.33374%)" offset="0.859375"/><stop stop-opacity="1" stop-color="rgb(92.530823%, 36.750793%, 23.301697%)" offset="0.863281"/><stop stop-opacity="1" stop-color="rgb(92.472839%, 36.103821%, 23.271179%)" offset="0.867187"/><stop stop-opacity="1" stop-color="rgb(92.41333%, 35.455322%, 23.239136%)" offset="0.871094"/><stop stop-opacity="1" stop-color="rgb(92.353821%, 34.806824%, 23.208618%)" offset="0.875"/><stop stop-opacity="1" stop-color="rgb(92.294312%, 34.158325%, 23.176575%)" offset="0.878906"/><stop stop-opacity="1" stop-color="rgb(92.236328%, 33.509827%, 23.146057%)" offset="0.882812"/><stop stop-opacity="1" stop-color="rgb(92.176819%, 32.861328%, 23.114014%)" offset="0.886719"/><stop stop-opacity="1" stop-color="rgb(92.118835%, 32.21283%, 23.083496%)" offset="0.890625"/><stop stop-opacity="1" stop-color="rgb(92.059326%, 31.564331%, 23.051453%)" offset="0.894531"/><stop stop-opacity="1" stop-color="rgb(92.001343%, 30.915833%, 23.019409%)" offset="0.898438"/><stop stop-opacity="1" stop-color="rgb(91.941833%, 30.267334%, 22.987366%)" offset="0.902344"/><stop stop-opacity="1" stop-color="rgb(91.882324%, 29.618835%, 22.956848%)" offset="0.90625"/><stop stop-opacity="1" stop-color="rgb(91.822815%, 28.970337%, 22.924805%)" offset="0.910156"/><stop stop-opacity="1" stop-color="rgb(91.764832%, 28.323364%, 22.894287%)" offset="0.914062"/><stop stop-opacity="1" stop-color="rgb(91.705322%, 27.674866%, 22.862244%)" offset="0.917969"/><stop stop-opacity="1" stop-color="rgb(91.647339%, 27.026367%, 22.831726%)" offset="0.921875"/><stop stop-opacity="1" stop-color="rgb(91.58783%, 26.377869%, 22.799683%)" offset="0.925781"/><stop stop-opacity="1" stop-color="rgb(91.529846%, 25.72937%, 22.769165%)" offset="0.929687"/><stop stop-opacity="1" stop-color="rgb(91.470337%, 25.080872%, 22.737122%)" offset="0.933594"/><stop stop-opacity="1" stop-color="rgb(91.410828%, 24.432373%, 22.705078%)" offset="0.9375"/><stop stop-opacity="1" stop-color="rgb(91.404724%, 24.365234%, 22.702026%)" offset="1"/></linearGradient><clipPath id="id4"><path d="M 239 145.832031 L 485 145.832031 L 485 438 L 239 438 Z M 239 145.832031 " clip-rule="nonzero"/></clipPath><clipPath id="id5"><path d="M 226.746094 337 L 333 337 L 333 444 L 226.746094 444 Z M 226.746094 337 " clip-rule="nonzero"/></clipPath><clipPath id="id6"><path d="M 543 259 L 631 259 L 631 451.832031 L 543 451.832031 Z M 543 259 " clip-rule="nonzero"/></clipPath></defs><g clip-path="url(#id1)"><g clip-path="url(#id2)"><path fill="url(#id3)" d="M 10.386719 71.152344 L 10.386719 697.929688 L 757.300781 697.929688 L 757.300781 71.152344 Z M 10.386719 71.152344 " fill-rule="nonzero"/></g></g><path fill="#ffffff" d="M 540.988281 316.9375 L 540.75 316.9375 C 534.980469 316.9375 530.183594 321.632812 530.058594 327.40625 C 529.933594 333.308594 534.628906 338.214844 540.523438 338.339844 C 541 338.351562 541.496094 338.355469 542.011719 338.355469 L 542.195312 338.355469 C 547.417969 338.355469 552.449219 337.613281 557.183594 336.179688 L 557.183594 342.503906 L 497.402344 342.503906 L 497.402344 282.691406 L 557.183594 282.691406 L 557.183594 312.878906 C 552.765625 315.648438 547.984375 316.921875 542 316.949219 C 541.695312 316.949219 541.355469 316.945312 540.988281 316.9375 Z M 540.988281 316.9375 " fill-opacity="1" fill-rule="nonzero"/><g clip-path="url(#id4)"><path fill="#ffffff" d="M 484.261719 145.832031 L 484.261719 437.140625 L 474.070312 437.140625 L 474.070312 431.617188 L 427.222656 431.617188 L 427.222656 425.320312 L 474.070312 425.320312 L 474.070312 363.230469 L 427.222656 363.230469 L 427.222656 356.933594 L 474.070312 356.933594 L 474.070312 294.84375 L 318.527344 294.84375 L 318.527344 333.410156 L 308.332031 333.410156 L 308.332031 294.84375 L 249.949219 294.84375 L 249.949219 333.410156 L 239.753906 333.410156 L 239.753906 145.832031 L 249.949219 145.832031 L 249.949219 151.777344 L 308.332031 151.777344 L 308.332031 145.832031 L 318.527344 145.832031 L 318.527344 151.777344 L 474.070312 151.777344 L 474.070312 145.832031 Z M 474.070312 288.550781 L 474.070312 226.460938 L 318.527344 226.460938 L 318.527344 288.550781 Z M 308.332031 288.550781 L 308.332031 226.460938 L 249.949219 226.460938 L 249.949219 288.550781 Z M 249.949219 158.074219 L 249.949219 220.164062 L 308.332031 220.164062 L 308.332031 158.074219 Z M 318.527344 158.074219 L 318.527344 220.164062 L 474.070312 220.164062 L 474.070312 158.074219 Z M 318.527344 158.074219 " fill-opacity="1" fill-rule="nonzero"/></g><path fill="#ffffff" d="M 389.117188 303.242188 L 328.285156 303.242188 L 328.285156 313.734375 L 389.117188 313.734375 Z M 389.117188 303.242188 " fill-opacity="1" fill-rule="nonzero"/><path fill="#ffffff" d="M 387.019531 315.484375 L 387.019531 333.410156 L 330.382812 333.410156 L 330.382812 315.484375 Z M 349.523438 327.902344 L 367.878906 327.902344 C 369.542969 327.902344 370.894531 326.550781 370.894531 324.882812 C 370.894531 323.21875 369.542969 321.867188 367.878906 321.867188 L 349.523438 321.867188 C 347.859375 321.867188 346.507812 323.21875 346.507812 324.882812 C 346.507812 326.550781 347.859375 327.902344 349.523438 327.902344 Z M 349.523438 327.902344 " fill-opacity="1" fill-rule="nonzero"/><path fill="#ffffff" d="M 462.707031 303.242188 L 401.878906 303.242188 L 401.878906 313.734375 L 462.707031 313.734375 Z M 462.707031 303.242188 " fill-opacity="1" fill-rule="nonzero"/><path fill="#ffffff" d="M 460.609375 315.484375 L 460.609375 351.863281 L 427.222656 351.863281 L 427.222656 333.410156 L 403.976562 333.410156 L 403.976562 315.484375 Z M 423.117188 327.902344 L 441.46875 327.902344 C 443.136719 327.902344 444.484375 326.550781 444.484375 324.882812 C 444.484375 323.21875 443.136719 321.867188 441.46875 321.867188 L 423.117188 321.867188 C 421.449219 321.867188 420.101562 323.21875 420.101562 324.882812 C 420.101562 326.550781 421.449219 327.902344 423.117188 327.902344 Z M 423.117188 327.902344 " fill-opacity="1" fill-rule="nonzero"/><path fill="#ffffff" d="M 462.707031 371.449219 L 427.222656 371.449219 L 427.222656 381.945312 L 462.707031 381.945312 Z M 462.707031 371.449219 " fill-opacity="1" fill-rule="nonzero"/><path fill="#ffffff" d="M 460.609375 420.070312 L 427.222656 420.070312 L 427.222656 396.109375 L 441.46875 396.109375 C 443.136719 396.109375 444.484375 394.761719 444.484375 393.09375 C 444.484375 391.425781 443.136719 390.078125 441.46875 390.078125 L 427.222656 390.078125 L 427.222656 383.695312 L 460.609375 383.695312 Z M 460.609375 420.070312 " fill-opacity="1" fill-rule="nonzero"/><path fill="#ffffff" d="M 257.832031 213.34375 L 257.832031 181.027344 L 300.113281 181.027344 L 300.113281 213.34375 Z M 287.785156 195.101562 L 281.058594 195.101562 L 281.058594 188.371094 L 276.890625 188.371094 L 276.890625 195.101562 L 270.164062 195.101562 L 270.164062 199.269531 L 276.890625 199.269531 L 276.890625 206 L 281.058594 206 L 281.058594 199.269531 L 287.785156 199.269531 Z M 287.785156 195.101562 " fill-opacity="1" fill-rule="nonzero"/><path fill="#ffffff" d="M 459.824219 282.164062 L 415.773438 282.164062 L 412.628906 244.039062 L 462.96875 244.039062 Z M 459.824219 282.164062 " fill-opacity="1" fill-rule="nonzero"/><path fill="#ffffff" d="M 466.117188 235.117188 L 409.480469 235.117188 L 409.480469 241.414062 L 466.117188 241.414062 Z M 466.117188 235.117188 " fill-opacity="1" fill-rule="nonzero"/><path fill="#ffffff" d="M 396.894531 282.164062 L 352.847656 282.164062 L 349.699219 244.039062 L 400.042969 244.039062 Z M 396.894531 282.164062 " fill-opacity="1" fill-rule="nonzero"/><path fill="#ffffff" d="M 403.1875 235.117188 L 346.554688 235.117188 L 346.554688 241.414062 L 403.1875 241.414062 Z M 403.1875 235.117188 " fill-opacity="1" fill-rule="nonzero"/><path fill="#ffffff" d="M 301.542969 261.878906 L 281.265625 261.878906 L 281.265625 282.164062 L 301.542969 282.164062 Z M 301.542969 261.878906 " fill-opacity="1" fill-rule="nonzero"/><path fill="#ffffff" d="M 276.632812 261.878906 L 256.355469 261.878906 L 256.355469 282.164062 L 276.632812 282.164062 Z M 276.632812 261.878906 " fill-opacity="1" fill-rule="nonzero"/><path fill="#ffffff" d="M 301.542969 237.480469 L 281.265625 237.480469 L 281.265625 257.765625 L 301.542969 257.765625 Z M 301.542969 237.480469 " fill-opacity="1" fill-rule="nonzero"/><path fill="#ffffff" d="M 276.632812 237.480469 L 256.355469 237.480469 L 256.355469 257.765625 L 276.632812 257.765625 Z M 276.632812 237.480469 " fill-opacity="1" fill-rule="nonzero"/><path fill="#ffffff" d="M 301.457031 324.023438 L 257.40625 324.023438 L 257.40625 329.273438 L 301.457031 329.273438 Z M 301.457031 324.023438 " fill-opacity="1" fill-rule="nonzero"/><path fill="#ffffff" d="M 301.457031 313.296875 L 257.40625 313.296875 L 257.40625 318.542969 L 301.457031 318.542969 Z M 301.457031 313.296875 " fill-opacity="1" fill-rule="nonzero"/><path fill="#ffffff" d="M 337.027344 337.609375 L 360.363281 337.609375 L 360.363281 365.941406 L 365.605469 361.742188 L 371.550781 365.941406 L 375.394531 361.742188 L 380.550781 365.941406 L 380.550781 337.609375 L 423.027344 337.609375 L 423.027344 443.59375 L 337.027344 443.59375 Z M 337.027344 337.609375 " fill-opacity="1" fill-rule="nonzero"/><g clip-path="url(#id5)"><path fill="#ffffff" d="M 270.164062 337.609375 L 270.164062 365.941406 L 275.410156 361.742188 L 281.351562 365.941406 L 285.199219 361.742188 L 290.355469 365.941406 L 290.355469 337.609375 L 332.832031 337.609375 L 332.832031 443.59375 L 226.902344 443.59375 L 226.902344 337.609375 Z M 270.164062 337.609375 " fill-opacity="1" fill-rule="nonzero"/></g><path fill="#ffffff" d="M 550.574219 217.484375 C 549.824219 217.660156 549.082031 217.871094 548.347656 218.117188 C 547.617188 218.367188 546.898438 218.652344 546.195312 218.96875 C 545.492188 219.289062 544.804688 219.640625 544.136719 220.027344 C 543.464844 220.414062 542.816406 220.832031 542.191406 221.28125 C 541.5625 221.734375 540.957031 222.210938 540.375 222.722656 C 539.792969 223.230469 539.238281 223.769531 538.710938 224.332031 C 538.183594 224.898438 537.683594 225.484375 537.214844 226.097656 C 536.742188 226.710938 536.304688 227.347656 535.894531 228.003906 C 535.488281 228.660156 535.113281 229.335938 534.769531 230.027344 C 534.429688 230.722656 534.121094 231.429688 533.847656 232.152344 C 533.574219 232.875 533.339844 233.613281 533.140625 234.359375 C 532.9375 235.105469 532.777344 235.859375 532.648438 236.621094 C 532.523438 237.386719 532.433594 238.152344 532.382812 238.921875 C 532.335938 239.695312 532.320312 240.46875 532.347656 241.238281 C 532.371094 242.011719 532.433594 242.78125 532.535156 243.546875 C 532.636719 244.316406 532.773438 245.074219 532.949219 245.828125 C 533.125 246.582031 533.335938 247.324219 533.582031 248.054688 C 533.832031 248.789062 534.117188 249.507812 534.433594 250.210938 C 534.753906 250.914062 535.105469 251.601562 535.492188 252.269531 C 535.878906 252.941406 536.296875 253.589844 536.746094 254.21875 C 537.195312 254.847656 537.675781 255.453125 538.183594 256.035156 C 538.695312 256.613281 539.230469 257.171875 539.792969 257.699219 C 540.359375 258.226562 540.945312 258.726562 541.558594 259.199219 C 542.171875 259.667969 542.804688 260.109375 543.460938 260.515625 C 544.117188 260.925781 544.792969 261.300781 545.484375 261.644531 C 546.179688 261.984375 546.886719 262.292969 547.609375 262.566406 C 548.332031 262.835938 549.066406 263.074219 549.8125 263.273438 C 550.558594 263.472656 551.316406 263.636719 552.078125 263.761719 C 552.839844 263.890625 553.605469 263.976562 554.375 264.027344 C 555.148438 264.078125 555.917969 264.09375 556.691406 264.066406 C 557.464844 264.042969 558.234375 263.980469 559 263.878906 C 559.765625 263.777344 560.523438 263.640625 561.277344 263.464844 C 562.03125 263.289062 562.773438 263.078125 563.503906 262.828125 C 564.234375 262.582031 564.953125 262.296875 565.65625 261.980469 C 566.363281 261.660156 567.046875 261.308594 567.71875 260.921875 C 568.386719 260.535156 569.035156 260.117188 569.664062 259.664062 C 570.292969 259.214844 570.894531 258.734375 571.476562 258.226562 C 572.058594 257.714844 572.613281 257.179688 573.140625 256.617188 C 573.667969 256.050781 574.167969 255.464844 574.640625 254.851562 C 575.109375 254.238281 575.550781 253.601562 575.957031 252.945312 C 576.367188 252.289062 576.742188 251.613281 577.082031 250.921875 C 577.425781 250.226562 577.730469 249.519531 578.003906 248.796875 C 578.277344 248.070312 578.511719 247.335938 578.714844 246.589844 C 578.914062 245.84375 579.078125 245.089844 579.203125 244.324219 C 579.328125 243.5625 579.417969 242.796875 579.46875 242.023438 C 579.519531 241.253906 579.53125 240.480469 579.507812 239.707031 C 579.480469 238.9375 579.417969 238.167969 579.316406 237.398438 C 579.21875 236.632812 579.078125 235.875 578.90625 235.121094 C 578.730469 234.367188 578.515625 233.625 578.269531 232.890625 C 578.019531 232.160156 577.738281 231.441406 577.417969 230.738281 C 577.101562 230.035156 576.746094 229.347656 576.363281 228.675781 C 575.976562 228.007812 575.558594 227.359375 575.109375 226.730469 C 574.65625 226.101562 574.179688 225.496094 573.667969 224.914062 C 573.160156 224.332031 572.621094 223.777344 572.058594 223.25 C 571.496094 222.722656 570.90625 222.222656 570.292969 221.75 C 569.679688 221.28125 569.046875 220.839844 568.390625 220.429688 C 567.734375 220.023438 567.058594 219.648438 566.367188 219.304688 C 565.675781 218.964844 564.964844 218.65625 564.242188 218.382812 C 563.519531 218.109375 562.785156 217.875 562.039062 217.675781 C 561.292969 217.472656 560.539062 217.3125 559.777344 217.183594 C 559.015625 217.058594 558.246094 216.96875 557.476562 216.917969 C 556.707031 216.867188 555.933594 216.855469 555.160156 216.878906 C 554.390625 216.90625 553.621094 216.96875 552.855469 217.070312 C 552.085938 217.171875 551.328125 217.308594 550.574219 217.484375 Z M 550.574219 217.484375 " fill-opacity="1" fill-rule="nonzero"/><g clip-path="url(#id6)"><path fill="#ffffff" d="M 613.757812 437.925781 C 598.152344 433.148438 586.695312 423.84375 580.144531 412.722656 C 578.445312 409.871094 577.050781 406.949219 575.917969 404 C 573.277344 414.496094 571.199219 426.40625 570.175781 439.726562 C 569.644531 446.609375 563.902344 451.839844 557.121094 451.839844 C 556.78125 451.839844 556.441406 451.824219 556.097656 451.800781 C 548.878906 451.242188 543.476562 444.9375 544.03125 437.714844 C 547.871094 387.835938 565.027344 354.855469 575.644531 338.828125 C 576.195312 334.394531 576.316406 329.789062 576.121094 325.144531 C 581.058594 320.507812 585.304688 314.726562 588.75 307.875 C 594.800781 295.734375 596.652344 284.199219 597.167969 279.800781 L 597.1875 279.636719 L 597.191406 279.59375 L 597.199219 279.53125 C 597.480469 276.6875 596.632812 273.902344 594.820312 271.691406 C 593.003906 269.484375 590.4375 268.117188 587.59375 267.835938 C 587.242188 267.804688 586.890625 267.789062 586.542969 267.789062 C 581.019531 267.789062 576.445312 271.941406 575.90625 277.449219 L 575.894531 277.566406 C 575.878906 277.703125 575.847656 277.925781 575.808594 278.226562 C 575.722656 278.820312 575.578125 279.789062 575.339844 281.015625 C 574.914062 283.253906 574.128906 286.730469 572.8125 290.59375 C 572.503906 291.515625 572.121094 292.578125 571.664062 293.71875 C 571.085938 290.855469 570.523438 288.125 570.027344 285.59375 C 567.019531 275.152344 570.957031 262.652344 579.90625 260.417969 C 588.863281 258.1875 601.839844 263.050781 607.121094 278.414062 C 614.257812 299.582031 615.792969 313.363281 613.082031 336.675781 C 611.269531 345.988281 606.941406 350.691406 601.8125 353.019531 C 601.75 353.238281 601.683594 353.453125 601.621094 353.675781 C 599.617188 360.617188 597.75 369.773438 597.765625 378.492188 C 597.753906 386.378906 599.261719 393.644531 602.640625 399.242188 C 606.078125 404.8125 611.128906 409.515625 621.578125 412.882812 C 628.492188 415.046875 632.339844 422.402344 630.179688 429.316406 C 628.019531 436.234375 620.667969 440.085938 613.757812 437.925781 Z M 613.757812 437.925781 " fill-opacity="1" fill-rule="nonzero"/></g><path fill="#ffffff" d="M 577.605469 281.453125 C 577.847656 280.203125 578 279.207031 578.089844 278.546875 C 578.136719 278.21875 578.167969 277.972656 578.1875 277.824219 C 578.203125 277.675781 578.203125 277.675781 578.203125 277.675781 C 578.652344 273.058594 582.753906 269.683594 587.367188 270.132812 C 591.980469 270.585938 595.351562 274.691406 594.902344 279.304688 C 594.816406 279.875 593.613281 292.933594 586.6875 306.835938 C 583.199219 313.773438 578.199219 321.003906 570.832031 326.644531 C 563.53125 332.265625 553.789062 336.046875 542.195312 336.046875 C 542.136719 336.046875 542.074219 336.046875 542.015625 336.046875 C 541.515625 336.046875 541.039062 336.039062 540.574219 336.027344 C 535.941406 335.929688 532.265625 332.089844 532.367188 327.453125 C 532.46875 322.820312 536.304688 319.140625 540.9375 319.242188 C 541.324219 319.25 541.679688 319.253906 542.015625 319.253906 C 550.214844 319.214844 555.910156 316.863281 560.652344 313.292969 C 567.714844 307.972656 572.386719 299.109375 574.996094 291.339844 C 576.308594 287.484375 577.128906 283.957031 577.605469 281.453125 Z M 577.605469 281.453125 " fill-opacity="1" fill-rule="nonzero"/><path fill="#ffffff" d="M 448.984375 215.09375 L 448.984375 195.417969 L 465.242188 195.417969 L 465.242188 215.09375 Z M 457.375 199.613281 L 450.820312 199.613281 L 450.820312 211.15625 L 457.375 211.15625 Z M 457.375 199.613281 " fill-opacity="1" fill-rule="nonzero"/><path fill="#ffffff" d="M 429.058594 195.417969 L 445.316406 195.417969 L 445.316406 215.09375 L 429.058594 215.09375 Z M 430.894531 211.15625 L 437.449219 211.15625 L 437.449219 199.613281 L 430.894531 199.613281 Z M 430.894531 211.15625 " fill-opacity="1" fill-rule="nonzero"/><path fill="#ffffff" d="M 409.132812 195.417969 L 425.386719 195.417969 L 425.386719 215.09375 L 409.132812 215.09375 Z M 410.964844 211.15625 L 417.523438 211.15625 L 417.523438 199.613281 L 410.964844 199.613281 Z M 410.964844 211.15625 " fill-opacity="1" fill-rule="nonzero"/><path fill="#ffffff" d="M 397.855469 215.355469 L 374.78125 215.355469 C 371.886719 215.355469 369.539062 213.007812 369.539062 210.109375 L 369.539062 181.773438 C 369.539062 178.875 371.886719 176.527344 374.78125 176.527344 L 397.855469 176.527344 C 400.753906 176.527344 403.101562 178.875 403.101562 181.773438 L 403.101562 210.109375 C 403.101562 213.007812 400.753906 215.355469 397.855469 215.355469 Z M 397.855469 215.355469 " fill-opacity="1" fill-rule="nonzero"/><path fill="#ffffff" d="M 392.785156 169.355469 L 379.851562 169.355469 L 379.851562 174.253906 L 392.785156 174.253906 Z M 392.785156 169.355469 " fill-opacity="1" fill-rule="nonzero"/><path fill="#ffffff" d="M 359.75 215.355469 L 336.675781 215.355469 C 333.78125 215.355469 331.433594 213.007812 331.433594 210.109375 L 331.433594 181.773438 C 331.433594 178.875 333.78125 176.527344 336.675781 176.527344 L 359.75 176.527344 C 362.644531 176.527344 364.992188 178.875 364.992188 181.773438 L 364.992188 210.109375 C 364.992188 213.007812 362.644531 215.355469 359.75 215.355469 Z M 359.75 215.355469 " fill-opacity="1" fill-rule="nonzero"/><path fill="#ffffff" d="M 354.679688 169.355469 L 341.746094 169.355469 L 341.746094 174.253906 L 354.679688 174.253906 Z M 354.679688 169.355469 " fill-opacity="1" fill-rule="nonzero"/></svg>